<svg id="visual" viewBox="0 0 540 960" width="540" height="960" xmlns="http://www.w3.org/2000/svg" xmlns:xlink="http://www.w3.org/1999/xlink" version="1.1"><rect x="0" y="0" width="540" height="960" fill="#001220"></rect><defs><linearGradient id="grad1_0" x1="0%" y1="0%" x2="100%" y2="100%"><stop offset="30%" stop-color="#fbae3c" stop-opacity="1"></stop><stop offset="70%" stop-color="#fbae3c" stop-opacity="1"></stop></linearGradient></defs><defs><linearGradient id="grad1_1" x1="0%" y1="0%" x2="100%" y2="100%"><stop offset="30%" stop-color="#fbae3c" stop-opacity="1"></stop><stop offset="70%" stop-color="#f17c53" stop-opacity="1"></stop></linearGradient></defs><defs><linearGradient id="grad1_2" x1="0%" y1="0%" x2="100%" y2="100%"><stop offset="30%" stop-color="#cc5867" stop-opacity="1"></stop><stop offset="70%" stop-color="#f17c53" stop-opacity="1"></stop></linearGradient></defs><defs><linearGradient id="grad1_3" x1="0%" y1="0%" x2="100%" y2="100%"><stop offset="30%" stop-color="#cc5867" stop-opacity="1"></stop><stop offset="70%" stop-color="#96446e" stop-opacity="1"></stop></linearGradient></defs><defs><linearGradient id="grad1_4" x1="0%" y1="0%" x2="100%" y2="100%"><stop offset="30%" stop-color="#593762" stop-opacity="1"></stop><stop offset="70%" stop-color="#96446e" stop-opacity="1"></stop></linearGradient></defs><defs><linearGradient id="grad1_5" x1="0%" y1="0%" x2="100%" y2="100%"><stop offset="30%" stop-color="#593762" stop-opacity="1"></stop><stop offset="70%" stop-color="#232745" stop-opacity="1"></stop></linearGradient></defs><defs><linearGradient id="grad1_6" x1="0%" y1="0%" x2="100%" y2="100%"><stop offset="30%" stop-color="#001220" stop-opacity="1"></stop><stop offset="70%" stop-color="#232745" stop-opacity="1"></stop></linearGradient></defs><defs><linearGradient id="grad2_0" x1="0%" y1="0%" x2="100%" y2="100%"><stop offset="30%" stop-color="#fbae3c" stop-opacity="1"></stop><stop offset="70%" stop-color="#fbae3c" stop-opacity="1"></stop></linearGradient></defs><defs><linearGradient id="grad2_1" x1="0%" y1="0%" x2="100%" y2="100%"><stop offset="30%" stop-color="#f17c53" stop-opacity="1"></stop><stop offset="70%" stop-color="#fbae3c" stop-opacity="1"></stop></linearGradient></defs><defs><linearGradient id="grad2_2" x1="0%" y1="0%" x2="100%" y2="100%"><stop offset="30%" stop-color="#f17c53" stop-opacity="1"></stop><stop offset="70%" stop-color="#cc5867" stop-opacity="1"></stop></linearGradient></defs><defs><linearGradient id="grad2_3" x1="0%" y1="0%" x2="100%" y2="100%"><stop offset="30%" stop-color="#96446e" stop-opacity="1"></stop><stop offset="70%" stop-color="#cc5867" stop-opacity="1"></stop></linearGradient></defs><defs><linearGradient id="grad2_4" x1="0%" y1="0%" x2="100%" y2="100%"><stop offset="30%" stop-color="#96446e" stop-opacity="1"></stop><stop offset="70%" stop-color="#593762" stop-opacity="1"></stop></linearGradient></defs><defs><linearGradient id="grad2_5" x1="0%" y1="0%" x2="100%" y2="100%"><stop offset="30%" stop-color="#232745" stop-opacity="1"></stop><stop offset="70%" stop-color="#593762" stop-opacity="1"></stop></linearGradient></defs><defs><linearGradient id="grad2_6" x1="0%" y1="0%" x2="100%" y2="100%"><stop offset="30%" stop-color="#232745" stop-opacity="1"></stop><stop offset="70%" stop-color="#001220" stop-opacity="1"></stop></linearGradient></defs><g transform="translate(540, 0)"><path d="M0 459C-59.8 453.4 -119.7 447.8 -175.7 424.1C-231.6 400.3 -283.8 358.5 -307.6 307.6C-331.4 256.7 -326.9 196.7 -347.4 143.9C-367.9 91.1 -413.4 45.6 -459 0L0 0Z" fill="#0f1d33"></path><path d="M0 393.4C-51.3 388.6 -102.6 383.8 -150.6 363.5C-198.5 343.1 -243.2 307.3 -263.6 263.6C-284.1 220 -280.2 168.6 -297.8 123.3C-315.3 78.1 -354.4 39 -393.4 0L0 0Z" fill="#3d3056"></path><path d="M0 327.9C-42.7 323.9 -85.5 319.8 -125.5 302.9C-165.5 286 -202.7 256.1 -219.7 219.7C-236.7 183.3 -233.5 140.5 -248.1 102.8C-262.8 65.1 -295.3 32.5 -327.9 0L0 0Z" fill="#773d6b"></path><path d="M0 262.3C-34.2 259.1 -68.4 255.9 -100.4 242.3C-132.4 228.8 -162.2 204.9 -175.8 175.8C-189.4 146.7 -186.8 112.4 -198.5 82.2C-210.2 52.1 -236.3 26 -262.3 0L0 0Z" fill="#b34c6d"></path><path d="M0 196.7C-25.6 194.3 -51.3 191.9 -75.3 181.7C-99.3 171.6 -121.6 153.6 -131.8 131.8C-142 110 -140.1 84.3 -148.9 61.7C-157.7 39 -177.2 19.5 -196.7 0L0 0Z" fill="#e1685e"></path><path d="M0 131.1C-17.1 129.5 -34.2 127.9 -50.2 121.2C-66.2 114.4 -81.1 102.4 -87.9 87.9C-94.7 73.3 -93.4 56.2 -99.3 41.1C-105.1 26 -118.1 13 -131.1 0L0 0Z" fill="#f99447"></path><path d="M0 65.6C-8.5 64.8 -17.1 64 -25.1 60.6C-33.1 57.2 -40.5 51.2 -43.9 43.9C-47.3 36.7 -46.7 28.1 -49.6 20.6C-52.6 13 -59.1 6.5 -65.6 0L0 0Z" fill="#fbae3c"></path></g><g transform="translate(0, 960)"><path d="M0 -459C60.2 -453.1 120.5 -447.2 175.7 -424.1C230.8 -400.9 280.9 -360.6 313.2 -313.2C345.6 -265.9 360.2 -211.4 381.6 -158C402.9 -104.7 430.9 -52.3 459 0L0 0Z" fill="#0f1d33"></path><path d="M0 -393.4C51.6 -388.4 103.3 -383.3 150.6 -363.5C197.8 -343.7 240.8 -309.1 268.5 -268.5C296.2 -227.9 308.8 -181.2 327.1 -135.5C345.3 -89.7 369.4 -44.9 393.4 0L0 0Z" fill="#3d3056"></path><path d="M0 -327.9C43 -323.6 86.1 -319.4 125.5 -302.9C164.9 -286.4 200.6 -257.6 223.7 -223.7C246.9 -189.9 257.3 -151 272.5 -112.9C287.8 -74.8 307.8 -37.4 327.9 0L0 0Z" fill="#773d6b"></path><path d="M0 -262.3C34.4 -258.9 68.9 -255.5 100.4 -242.3C131.9 -229.1 160.5 -206.1 179 -179C197.5 -151.9 205.8 -120.8 218 -90.3C230.2 -59.8 246.3 -29.9 262.3 0L0 0Z" fill="#b34c6d"></path><path d="M0 -196.7C25.8 -194.2 51.6 -191.6 75.3 -181.7C98.9 -171.8 120.4 -154.6 134.2 -134.2C148.1 -113.9 154.4 -90.6 163.5 -67.7C172.7 -44.9 184.7 -22.4 196.7 0L0 0Z" fill="#e1685e"></path><path d="M0 -131.1C17.2 -129.5 34.4 -127.8 50.2 -121.2C65.9 -114.6 80.3 -103 89.5 -89.5C98.7 -76 102.9 -60.4 109 -45.2C115.1 -29.9 123.1 -15 131.1 0L0 0Z" fill="#f99447"></path><path d="M0 -65.6C8.6 -64.7 17.2 -63.9 25.1 -60.6C33 -57.3 40.1 -51.5 44.7 -44.7C49.4 -38 51.5 -30.2 54.5 -22.6C57.6 -15 61.6 -7.5 65.6 0L0 0Z" fill="#fbae3c"></path></g></svg>